<?xml version="1.0" encoding="UTF-8"?>
<svg version="1.1" xmlns="http://www.w3.org/2000/svg" width="354" height="79">
<path d="M0 0 C0 0.66 0 1.32 0 2 C0.64324219 1.81566406 1.28648437 1.63132813 1.94921875 1.44140625 C6.03837019 0.84976206 9.73899144 1.38776414 13.8125 1.9375 C14.60076172 2.03740234 15.38902344 2.13730469 16.20117188 2.24023438 C18.13503503 2.48636241 20.06765656 2.74221218 22 3 C22 4.32 22 5.64 22 7 C22.94875 6.835 23.8975 6.67 24.875 6.5 C29.5763877 5.81458208 34.26003286 5.91416559 39 6 C39 5.34 39 4.68 39 4 C44.94 4.33 50.88 4.66 57 5 C57 5.66 57 6.32 57 7 C56.01 7 55.02 7 54 7 C54 7.66 54 8.32 54 9 C50.7 9.66 47.4 10.32 44 11 C43.95875 11.928125 43.9175 12.85625 43.875 13.8125 C43.12071102 19.45226069 39.84830459 24.18314238 37 29 C40.1647977 29.70390422 43.07136949 30.11743442 46.3125 30.0625 C47.529375 30.041875 48.74625 30.02125 50 30 C53.31864563 23.61690288 56.20921379 17.1867453 58.7890625 10.46875 C60 8 60 8 63 6 C64.32 6 65.64 6 67 6 C67 7.32 67 8.64 67 10 C67.99 10.495 67.99 10.495 69 11 C68.25363281 11.83789062 67.50726563 12.67578125 66.73828125 13.5390625 C63.93769675 16.8997639 62.04989243 20.43643057 60.1875 24.375 C59.87619141 25.01566406 59.56488281 25.65632813 59.24414062 26.31640625 C58.48859644 27.87398965 57.74320261 29.43649018 57 31 C58.98 31 60.96 31 63 31 C64 34 64 34 62.75 37.625 C61 41 61 41 58 42 C55.26187393 41.54451823 52.6798824 40.74685247 50 40 C50 41.32 50 42.64 50 44 C49.34 44 48.68 44 48 44 C47.67 45.32 47.34 46.64 47 48 C47.66 48 48.32 48 49 48 C49.495 47.01 49.495 47.01 50 46 C49.38178053 50.46303648 47.61950078 54.11188547 45.5625 58.0625 C45.24990234 58.67416016 44.93730469 59.28582031 44.61523438 59.91601562 C43.74759124 61.61278073 42.87399931 63.30650018 42 65 C41.63777344 65.78246094 41.27554688 66.56492187 40.90234375 67.37109375 C40 69 40 69 38 70 C36.98308736 71.99145391 35.98357352 73.99187074 35 76 C34.34 76.66 33.68 77.32 33 78 C32.01 78 31.02 78 30 78 C30.78362221 64.67842244 37.99439732 52.63234725 44 41 C44.495 40.01 44.495 40.01 45 39 C44.32453125 39 43.6490625 39 42.953125 39 C38.96875 39 34.984375 39 31 39 C30.81824219 39.59167969 30.63648438 40.18335938 30.44921875 40.79296875 C27.74149491 49.30494164 27.74149491 49.30494164 25 53 C24.34 53 23.68 53 23 53 C22.67 53.99 22.34 54.98 22 56 C21.01 56 20.02 56 19 56 C19.48969295 49.38914524 21.33442742 44.05022986 24 38 C21.69 37.34 19.38 36.68 17 36 C17 35.34 17 34.68 17 34 C22.48313749 31.06715902 22.48313749 31.06715902 25.5534668 30.66821289 C28.11971349 30.23612149 28.11971349 30.23612149 29.39379883 28.14233398 C29.74466553 27.35157471 30.09553223 26.56081543 30.45703125 25.74609375 C31.04194336 24.46508789 31.04194336 24.46508789 31.63867188 23.15820312 C32.2197168 21.81145508 32.2197168 21.81145508 32.8125 20.4375 C33.21919922 19.53580078 33.62589844 18.63410156 34.04492188 17.70507812 C35.04697254 15.47698901 36.03092814 13.24258245 37 11 C36.25363281 11.16371094 35.50726563 11.32742188 34.73828125 11.49609375 C31.45618459 12.10007445 28.32989931 12.06529214 25 12 C24.67 12.99 24.34 13.98 24 15 C23.34 15 22.68 15 22 15 C20.36323743 16.9600281 20.36323743 16.9600281 19 19 C18.67 18.67 18.34 18.34 18 18 C17.63648438 18.87011719 17.63648438 18.87011719 17.265625 19.7578125 C15.21606386 24.53486653 13.03182285 28.77710389 10 33 C9.67 32.34 9.34 31.68 9 31 C8.34 31 7.68 31 7 31 C6.79503906 31.62648438 6.59007812 32.25296875 6.37890625 32.8984375 C6.10949219 33.71570312 5.84007812 34.53296875 5.5625 35.375 C5.29566406 36.18710937 5.02882812 36.99921875 4.75390625 37.8359375 C4 40 4 40 3 42 C3.99 42.495 3.99 42.495 5 43 C3.625 45 3.625 45 2 47 C1.34 47 0.68 47 0 47 C-0.226875 47.825 -0.45375 48.65 -0.6875 49.5 C-2.23771321 53.63390189 -4.11059793 57.62188601 -7 61 C-7.99 61 -8.98 61 -10 61 C-9.71734285 52.66161401 -6.76953563 46.33556487 -3 39 C-2.44820068 37.92081299 -2.44820068 37.92081299 -1.88525391 36.81982422 C-0.70363549 34.52073659 0.48857331 32.22760669 1.6875 29.9375 C2.25791016 28.84791992 2.25791016 28.84791992 2.83984375 27.73632812 C4.33661168 24.92461795 5.77633016 22.29430243 7.70703125 19.75390625 C9.11660021 17.84183235 9.58556368 16.32084338 10 14 C2.05826961 15.01147652 2.05826961 15.01147652 -4.35546875 19.42578125 C-6.0492006 21.89478829 -7.5924963 24.35845255 -9 27 C-9.66 26.67 -10.32 26.34 -11 26 C-10.67 24.35 -10.34 22.7 -10 21 C-10.99 22.98 -11.98 24.96 -13 27 C-12.01 27.66 -11.02 28.32 -10 29 C-10.99 29.495 -10.99 29.495 -12 30 C-11.01 30.33 -10.02 30.66 -9 31 C-8 34 -8 34 -9.25 37.625 C-11 41 -11 41 -14 42 C-16.73812607 41.54451823 -19.3201176 40.74685247 -22 40 C-23.05695235 43.93057488 -23.05695235 43.93057488 -22.38964844 47.87695312 C-21.89437443 50.57551373 -22.46444186 51.58344001 -23.765625 53.96875 C-24.16136719 54.70480469 -24.55710938 55.44085938 -24.96484375 56.19921875 C-25.38894531 56.95847656 -25.81304687 57.71773437 -26.25 58.5 C-26.65863281 59.25925781 -27.06726563 60.01851562 -27.48828125 60.80078125 C-29.44935969 64.40134649 -31.43893598 67.78521093 -34 71 C-34.515625 71.86625 -35.03125 72.7325 -35.5625 73.625 C-37 76 -37 76 -39 78 C-39.99 78 -40.98 78 -42 78 C-41.18455843 64.13749324 -33.54035675 51.8980346 -27 40 C-28.43725871 39.83126522 -29.87481838 39.66509263 -31.3125 39.5 C-32.51326172 39.36078125 -32.51326172 39.36078125 -33.73828125 39.21875 C-36.11896555 38.95186537 -36.11896555 38.95186537 -39 39 C-39.66 39 -40.32 39 -41 39 C-41.10441406 39.71800781 -41.20882812 40.43601563 -41.31640625 41.17578125 C-42.07175263 44.29644087 -43.25198534 46.46347753 -44.9375 49.1875 C-45.46214844 50.04730469 -45.98679688 50.90710937 -46.52734375 51.79296875 C-48 54 -48 54 -50 56 C-50.99 56 -51.98 56 -53 56 C-51.9007105 49.68878497 -50.41862058 43.93661416 -48 38 C-50.31 37.34 -52.62 36.68 -55 36 C-55 35.34 -55 34.68 -55 34 C-49.51819944 31.06787412 -49.51819944 31.06787412 -46.43334961 30.66381836 C-43.8833676 30.24429485 -43.8833676 30.24429485 -42.70141602 28.17407227 C-42.38873779 27.39604248 -42.07605957 26.6180127 -41.75390625 25.81640625 C-41.39103516 24.97142578 -41.02816406 24.12644531 -40.65429688 23.25585938 C-39.92834312 21.46500029 -39.20437335 19.67333564 -38.48242188 17.88085938 C-35.65952348 11.32074329 -35.65952348 11.32074329 -31.71484375 9.40234375 C-30.81894531 9.26957031 -29.92304688 9.13679687 -29 9 C-27.25697343 14.47808349 -28.34636228 17.3098387 -30.9375 22.4375 C-31.94125676 24.30096642 -32.95671394 26.1583733 -34 28 C-32.18806994 30.24324836 -32.18806994 30.24324836 -29.6171875 30.1953125 C-28.25980469 30.16050781 -28.25980469 30.16050781 -26.875 30.125 C-25.96492188 30.10695313 -25.05484375 30.08890625 -24.1171875 30.0703125 C-23.06917969 30.03550781 -23.06917969 30.03550781 -22 30 C-19.14609321 24.39745347 -16.39602786 18.7772217 -13.89453125 13.0078125 C-13.59933594 12.34523438 -13.30414063 11.68265625 -13 11 C-12.69449219 10.27554687 -12.38898438 9.55109375 -12.07421875 8.8046875 C-11 7 -11 7 -8 6 C-7.505 5.175 -7.01 4.35 -6.5 3.5 C-4.70121567 0.50202612 -3.47740675 0 0 0 Z M8 5 C9.1645201 6.66621425 9.1645201 6.66621425 11 8 C13.65466049 7.76956136 13.65466049 7.76956136 16 7 C16 6.34 16 5.68 16 5 C13.36 5 10.72 5 8 5 Z M-6 13 C-6.66 14.32 -7.32 15.64 -8 17 C-7.01 16.67 -6.02 16.34 -5 16 C-4.67 15.01 -4.34 14.02 -4 13 C-4.66 13 -5.32 13 -6 13 Z M14 13 C15 15 15 15 15 15 Z M11 18 C12 20 12 20 12 20 Z M9 21 C10 23 10 23 10 23 Z M8 23 C9 25 9 25 9 25 Z M7 25 C6.34 25.66 5.68 26.32 5 27 C5.99 27 6.98 27 8 27 C7.67 26.34 7.34 25.68 7 25 Z M-30 32 C-30 32.66 -30 33.32 -30 34 C-29.34 34 -28.68 34 -28 34 C-28 33.34 -28 32.68 -28 32 C-28.66 32 -29.32 32 -30 32 Z M-27 32 C-26.01 32.99 -25.02 33.98 -24 35 C-24 34.01 -24 33.02 -24 32 C-24.99 32 -25.98 32 -27 32 Z M42 32 C41.67 32.66 41.34 33.32 41 34 C41.99 34 42.98 34 44 34 C44 33.34 44 32.68 44 32 C43.34 32 42.68 32 42 32 Z M45 32 C45.33 32.66 45.66 33.32 46 34 C46.66 34 47.32 34 48 34 C48 33.34 48 32.68 48 32 C47.01 32 46.02 32 45 32 Z M46 48 C47 51 47 51 47 51 Z M-29 56 C-28 58 -28 58 -28 58 Z M-33 64 C-32 66 -32 66 -32 66 Z M39 64 C40 66 40 66 40 66 Z M38 66 C39 68 39 68 39 68 Z " fill="#000000" transform="translate(208,1)"/>
<path d="M0 0 C3.56108467 1.32786208 5.35513566 2.35513566 8 5 C8.7398492 8.82385218 8.734887 12.52174653 6.984375 16.04296875 C4.90899524 18.97475521 2.56323826 21.48937954 0 24 C0.78375 24.433125 1.5675 24.86625 2.375 25.3125 C5 27 5 27 7 30 C8.05134521 35.38814418 5.79373702 39.2337703 2.96484375 43.66015625 C-3.57924492 51.45321611 -14.56980411 52.74554167 -24.125 53.625 C-28.43180559 53.93892317 -32.68377086 54.09809612 -37 54 C-37.12375 53.030625 -37.2475 52.06125 -37.375 51.0625 C-37.58125 50.051875 -37.7875 49.04125 -38 48 C-38.66 47.67 -39.32 47.34 -40 47 C-40.625 44.4375 -40.625 44.4375 -41 42 C-39.58566794 41.7763663 -38.16832382 41.57173524 -36.75 41.375 C-35.96109375 41.25898437 -35.1721875 41.14296875 -34.359375 41.0234375 C-32 41 -32 41 -30.125 41.96875 C-27.12121515 43.42646912 -24.56442004 43.1912884 -21.25 43.125 C-20.07953125 43.10695312 -18.9090625 43.08890625 -17.703125 43.0703125 C-16.81109375 43.04710937 -15.9190625 43.02390625 -15 43 C-15 43.66 -15 44.32 -15 45 C-13.515 45.495 -13.515 45.495 -12 46 C-11.90912109 45.07960938 -11.90912109 45.07960938 -11.81640625 44.140625 C-11 42 -11 42 -8.71484375 40.734375 C-7.79832031 40.40953125 -6.88179688 40.0846875 -5.9375 39.75 C-5.01839844 39.41484375 -4.09929687 39.0796875 -3.15234375 38.734375 C-2.44207031 38.49203125 -1.73179687 38.2496875 -1 38 C-1.27179104 35.57094702 -1.27179104 35.57094702 -2 33 C-7.00712646 29.34897029 -11.94864672 28.0428636 -18 27 C-18.38285156 28.08861328 -18.38285156 28.08861328 -18.7734375 29.19921875 C-20.06801074 32.1552984 -21.60455104 34.30564666 -23.625 36.8125 C-24.25664062 37.60269531 -24.88828125 38.39289062 -25.5390625 39.20703125 C-26.02117187 39.79871094 -26.50328125 40.39039063 -27 41 C-27.99 40.67 -28.98 40.34 -30 40 C-28 31.42857143 -28 31.42857143 -26 28 C-26.99 27.34 -27.98 26.68 -29 26 C-28.67 24.35 -28.34 22.7 -28 21 C-27.34 21 -26.68 21 -26 21 C-26 19.68 -26 18.36 -26 17 C-24.63875 17.0309375 -24.63875 17.0309375 -23.25 17.0625 C-20.57327412 17.0110245 -18.53011948 16.7784983 -16 16 C-16.226875 15.443125 -16.45375 14.88625 -16.6875 14.3125 C-17.12676654 11.06192763 -15.80933068 9.64440637 -14 7 C-13.67 6.34 -13.34 5.68 -13 5 C-15.475 4.505 -15.475 4.505 -18 4 C-12.8746529 -1.35831742 -7.10484172 -0.50070573 0 0 Z M-5 6 C-5.18175781 6.63808594 -5.36351562 7.27617187 -5.55078125 7.93359375 C-5.80214844 8.75988281 -6.05351562 9.58617187 -6.3125 10.4375 C-6.55613281 11.26121094 -6.79976563 12.08492187 -7.05078125 12.93359375 C-7.36402344 13.61550781 -7.67726563 14.29742187 -8 15 C-8.99 15.33 -9.98 15.66 -11 16 C-7.60104332 17.13298556 -6.73016562 16.85659602 -3.4375 15.75 C-2.65246094 15.49734375 -1.86742187 15.2446875 -1.05859375 14.984375 C1.33117625 14.05719845 1.33117625 14.05719845 3 11 C0.4041044 8.12597273 -1.21369298 6.75567052 -5 6 Z " fill="#000000" transform="translate(346,9)"/>
<path d="M0 0 C0.66 0.33 1.32 0.66 2 1 C1.57847656 1.80824219 1.15695313 2.61648437 0.72265625 3.44921875 C0.17480469 4.51785156 -0.37304688 5.58648437 -0.9375 6.6875 C-1.75541016 8.27111328 -1.75541016 8.27111328 -2.58984375 9.88671875 C-4.07040937 12.82821894 -4.07040937 12.82821894 -4.47265625 15.51171875 C-5.17735837 18.83686876 -6.73171519 21.23341951 -8.5 24.125 C-11.10606892 28.39682408 -11.10606892 28.39682408 -13 33 C-13.515625 33.495 -14.03125 33.99 -14.5625 34.5 C-16.34595268 36.01472806 -16.34595268 36.01472806 -16 39 C-16.66 39 -17.32 39 -18 39 C-18.185625 39.78375 -18.37125 40.5675 -18.5625 41.375 C-20.55565681 46.40122152 -23.18265842 51.1316634 -27 55 C-30.91277503 56.0281016 -34.15157263 56.38970988 -38 55 C-40.40159307 51.5466748 -40.20709249 48.35462463 -40.125 44.25 C-40.10695313 43.07953125 -40.08890625 41.9090625 -40.0703125 40.703125 C-40.04710938 39.81109375 -40.02390625 38.9190625 -40 38 C-40.66 38 -41.32 38 -42 38 C-45.60354465 44.26054516 -45.60354465 44.26054516 -48.625 50.8125 C-49.84336362 53.63688838 -50.87511166 55.78657464 -53 58 C-53.99 58 -54.98 58 -56 58 C-56.33 58.66 -56.66 59.32 -57 60 C-58 59 -58 59 -58.0625 55.4375 C-57.19399387 48.40037344 -53.41335519 42.33340935 -50.13476562 36.16552734 C-48.98756686 33.97627325 -47.88560939 31.76963751 -46.796875 29.55078125 C-46.44310791 28.83027588 -46.08934082 28.10977051 -45.72485352 27.36743164 C-45.04929007 25.98848089 -44.37522193 24.60879625 -43.70288086 23.22827148 C-42.0558923 19.90310625 -40.35774531 16.87282198 -38 14 C-35.13275314 14.57344937 -34.1385485 14.8614515 -32 17 C-32 18.32 -32 19.64 -32 21 C-31.34 21 -30.68 21 -30 21 C-30 27.93 -30 34.86 -30 42 C-27.13097956 38.41372445 -25.21091928 35.76020851 -23.1875 31.8125 C-20.23199557 26.27750951 -17.05212502 20.81450936 -13 16 C-12.34 16 -11.68 16 -11 16 C-10.34 14.35 -9.68 12.7 -9 11 C-8.34 11 -7.68 11 -7 11 C-6.773125 10.29875 -6.54625 9.5975 -6.3125 8.875 C-4.68343133 5.30656387 -2.59359269 2.93485489 0 0 Z " fill="#000000" transform="translate(80,0)"/>
<path d="M0 0 C1.9375 0.1875 1.9375 0.1875 4 1 C5.72101535 3.58152302 6 4.84918025 6 8 C6.66 8 7.32 8 8 8 C7.43040847 11.62613199 6.07625466 13.25517741 3.4375 15.75 C2.47650391 16.67039062 2.47650391 16.67039062 1.49609375 17.609375 C1.00238281 18.06828125 0.50867188 18.5271875 0 19 C0 15.89448334 0.5393715 14.64738916 2 12 C-1.11647321 14.54984172 -1.84188155 17.21681307 -3 21 C-4.57855901 24.60813489 -6.68575613 27.81791467 -9 31 C-9.66 31 -10.32 31 -11 31 C-11.2475 32.175625 -11.495 33.35125 -11.75 34.5625 C-12.81896129 38.90806003 -14.63577541 42.21724066 -17 46 C-17.66 46 -18.32 46 -19 46 C-19.33 46.99 -19.66 47.98 -20 49 C-20.66 49 -21.32 49 -22 49 C-22.33 50.65 -22.66 52.3 -23 54 C-24.485 54.495 -24.485 54.495 -26 55 C-25.5464821 47.97047248 -23.87940913 42.4150557 -21 36 C-21.66 36 -22.32 36 -23 36 C-23 36.66 -23 37.32 -23 38 C-23.66 38 -24.32 38 -25 38 C-25 38.66 -25 39.32 -25 40 C-27.09595521 42.04763347 -29.39870926 43.65635809 -32 45 C-34.9375 44.8125 -34.9375 44.8125 -37 44 C-37.33 42.35 -37.66 40.7 -38 39 C-38.99 39.495 -38.99 39.495 -40 40 C-41.7561674 36.4876652 -40.77557776 32.74561972 -40 29 C-38.1121886 23.97522836 -35.12186239 19.53070787 -32.23828125 15.03125 C-30.26458621 11.79364299 -28.64608813 8.41410871 -27 5 C-26.34 5 -25.68 5 -25 5 C-25 4.01 -25 3.02 -25 2 C-23.68 2.33 -22.36 2.66 -21 3 C-21 3.99 -21 4.98 -21 6 C-20.01 5.67 -19.02 5.34 -18 5 C-16.5 6.25 -16.5 6.25 -15 8 C-15 9.32 -15 10.64 -15 12 C-16.010625 12.61875 -17.02125 13.2375 -18.0625 13.875 C-23.9393595 17.62899392 -26.26003845 24.84549671 -29 31 C-25.59787701 29.38617243 -22.89675481 27.41396234 -20 25 C-19.34 25.33 -18.68 25.66 -18 26 C-17.731875 25.2575 -17.46375 24.515 -17.1875 23.75 C-16.04723249 21.10938051 -14.90619694 19.14447156 -13 17 C-12.34 17 -11.68 17 -11 17 C-10.773125 16.484375 -10.54625 15.96875 -10.3125 15.4375 C-8.83164071 12.68733274 -7.07567091 10.266407 -5.23828125 7.74609375 C-3.69598651 5.57131221 -2.35117834 3.29700317 -1 1 C-0.67 0.67 -0.34 0.34 0 0 Z M-24 6 C-23 9 -23 9 -23 9 Z M3 9 C3 12 3 12 3 12 Z M-37 31 C-36 33 -36 33 -36 33 Z M-20 43 C-19 45 -19 45 -19 45 Z " fill="#000000" transform="translate(313,11)"/>
<path d="M0 0 C0.53625 0.268125 1.0725 0.53625 1.625 0.8125 C1.625 1.4725 1.625 2.1325 1.625 2.8125 C2.553125 2.9671875 2.553125 2.9671875 3.5 3.125 C5.625 3.8125 5.625 3.8125 7.625 6.8125 C7.625 8.1325 7.625 9.4525 7.625 10.8125 C6.573125 10.93625 5.52125 11.06 4.4375 11.1875 C-3.27759708 12.45227001 -8.44165359 15.78513162 -13.05078125 22.11328125 C-16.38774254 27.43751477 -18.70845961 32.760327 -20.375 38.8125 C-14.60121075 38.3313509 -10.41640164 36.62782819 -5.375 33.8125 C-7.025 33.8125 -8.675 33.8125 -10.375 33.8125 C-11.4842904 30.48462881 -11.39057588 29.1131216 -10.375 25.8125 C-6.4878068 23.22103786 -3.77280306 23.90136667 0.625 24.5 C1.71167969 24.61891602 1.71167969 24.61891602 2.8203125 24.74023438 C5.90379063 25.13562502 8.15189663 25.43826784 10.625 27.39453125 C11.12 28.09642578 11.12 28.09642578 11.625 28.8125 C10.84125 29.039375 10.0575 29.26625 9.25 29.5 C5.86065451 31.19467274 5.85160025 32.28602429 4.625 35.8125 C3.49318481 37.76705777 2.27622203 39.65223429 1.046875 41.546875 C0.02691341 43.17208852 -0.93580829 44.83376141 -1.859375 46.515625 C-2.35953125 47.41796875 -2.8596875 48.3203125 -3.375 49.25 C-4.055625 50.51650391 -4.055625 50.51650391 -4.75 51.80859375 C-6.375 53.8125 -6.375 53.8125 -9.0625 54.59765625 C-10.2071875 54.70400391 -10.2071875 54.70400391 -11.375 54.8125 C-11.375 52.14583333 -11.375 49.47916667 -11.375 46.8125 C-13.2003125 47.4003125 -13.2003125 47.4003125 -15.0625 48 C-18.25026319 48.7969408 -19.12788002 48.9071417 -22.3125 47.6875 C-24.57946116 45.62662622 -24.79545729 44.71021355 -25.375 41.8125 C-26.365 41.4825 -27.355 41.1525 -28.375 40.8125 C-29.41087074 29.62509602 -23.25049637 22.23248017 -16.4609375 13.8671875 C-14.375 11.8125 -14.375 11.8125 -11.375 11.8125 C-11.375 10.8225 -11.375 9.8325 -11.375 8.8125 C-11.045 8.1525 -10.715 7.4925 -10.375 6.8125 C-9.715 6.8125 -9.055 6.8125 -8.375 6.8125 C-8.375 6.1525 -8.375 5.4925 -8.375 4.8125 C-3.19266704 -0.25205266 -3.19266704 -0.25205266 0 0 Z M-1.375 2.8125 C-1.375 3.4725 -1.375 4.1325 -1.375 4.8125 C-0.055 4.4825 1.265 4.1525 2.625 3.8125 C1.305 3.4825 -0.015 3.1525 -1.375 2.8125 Z M-15.375 14.8125 C-15.375 17.8125 -15.375 17.8125 -15.375 17.8125 Z " fill="#000000" transform="translate(144.375,11.1875)"/>
<path d="M0 0 C0 3.3 0 6.6 0 10 C-5.21508059 12.0280869 -10.38881576 13.72891844 -15.80078125 15.15625 C-18.21273134 16.08161629 -19.42254717 16.96672476 -21 19 C-20.90728404 22.43049058 -19.94142456 24.08603268 -18 26.9375 C-15.88448442 30.17688323 -15.16695404 32.1600571 -15 36 C-16.29963473 39.65169106 -17.94246233 40.87955677 -21.375 42.5625 C-27.70752231 45.53547195 -36.03036709 49.4112948 -43 47 C-42.01 46.34 -41.02 45.68 -40 45 C-40.33 44.34 -40.66 43.68 -41 43 C-35.39 40.03 -29.78 37.06 -24 34 C-24.65069377 29.2733281 -24.65069377 29.2733281 -26.4375 26.625 C-29.30568343 21.80645184 -30.82640002 16.57645797 -29.92578125 10.98828125 C-27.35284452 5.46243823 -20.31031119 2.38060805 -14.9375 0.0625 C-10.3043074 -1.47560671 -4.47093484 -2.23546742 0 0 Z M-20 6 C-19.67 6.66 -19.34 7.32 -19 8 C-18.67 7.34 -18.34 6.68 -18 6 C-18.66 6 -19.32 6 -20 6 Z " fill="#000000" transform="translate(105,13)"/>
<path d="M0 0 C4.65821596 2.15868545 4.65821596 2.15868545 5.8125 5 C6.1594931 8.70125971 6.1472435 9.77913475 4 13 C3.34 13 2.68 13 2 13 C1.731875 13.53625 1.46375 14.0725 1.1875 14.625 C0.795625 15.40875 0.40375 16.1925 0 17 C-0.4125 17.886875 -0.825 18.77375 -1.25 19.6875 C-3.14022805 23.26543166 -5.34121075 26.46870455 -7.6953125 29.75390625 C-9.11982697 32.20628895 -9.5129849 34.22535436 -10 37 C-11.26082738 39.42826014 -12.55023077 41.69043072 -14 44 C-14.48082031 44.78503906 -14.96164062 45.57007813 -15.45703125 46.37890625 C-15.96621094 47.18199219 -16.47539062 47.98507813 -17 48.8125 C-17.7115625 49.93591797 -17.7115625 49.93591797 -18.4375 51.08203125 C-20.15453184 53.18968784 -21.44234476 54.1079146 -24 55 C-24.66 54.67 -25.32 54.34 -26 54 C-25.49566222 48.29653307 -23.90092692 44.10633109 -21.25 39.0625 C-20.709198 38.01026245 -20.709198 38.01026245 -20.1574707 36.93676758 C-13.82878174 24.75096124 -13.82878174 24.75096124 -10.53125 21.59375 C-8.68203928 19.66906129 -7.57210383 17.66149093 -6.3125 15.3125 C-5.65701172 14.10013672 -5.65701172 14.10013672 -4.98828125 12.86328125 C-4.49908203 11.94095703 -4.49908203 11.94095703 -4 11 C-4.66 10.67 -5.32 10.34 -6 10 C-5.38302681 8.51746733 -4.75616104 7.03904826 -4.125 5.5625 C-3.77695312 4.73878906 -3.42890625 3.91507813 -3.0703125 3.06640625 C-2 1 -2 1 0 0 Z M-2 6 C-1 8 -1 8 -1 8 Z M-3 8 C-2 10 -2 10 -2 10 Z " fill="#000000" transform="translate(26,11)"/>
<path d="M0 0 C4.65821596 2.15868545 4.65821596 2.15868545 5.8125 5 C6.2491745 9.65786132 6.2491745 9.65786132 4.72265625 11.75390625 C4.17480469 12.35074219 3.62695312 12.94757812 3.0625 13.5625 C0.75540038 16.08999729 0.75540038 16.08999729 -1 19 C-1.66 19 -2.32 19 -3 19 C-3.061875 19.845625 -3.12375 20.69125 -3.1875 21.5625 C-4.08021334 25.33936411 -5.43033244 27.20320657 -7.73828125 30.21875 C-9.66289187 32.93584735 -10.75799978 35.92199946 -12 39 C-14.63129306 44.93236982 -17.95575255 49.93120987 -22 55 C-23.32 54.67 -24.64 54.34 -26 54 C-25.80634032 44.31701616 -20.32231768 34.89427567 -15 27 C-14.34 27 -13.68 27 -13 27 C-11.66161267 24.54429825 -10.32913768 22.08570084 -9 19.625 C-8.6184375 18.92632813 -8.236875 18.22765625 -7.84375 17.5078125 C-5.74275256 13.9571054 -5.74275256 13.9571054 -5 10 C-4.57849982 8.46854936 -4.11490916 6.94845747 -3.625 5.4375 C-3.24214844 4.22900391 -3.24214844 4.22900391 -2.8515625 2.99609375 C-2 1 -2 1 0 0 Z M-2 6 C-2 9 -2 9 -2 9 Z " fill="#000000" transform="translate(117,11)"/>
<path d="M0 0 C0.66 0 1.32 0 2 0 C1.44010697 3.99012371 0.24330232 6.5255052 -2.0625 9.8125 C-2.88427734 10.99779297 -2.88427734 10.99779297 -3.72265625 12.20703125 C-4.35494141 13.09455078 -4.35494141 13.09455078 -5 14 C-5.99 13.67 -6.98 13.34 -8 13 C-6.85605098 11.01974361 -5.70978896 9.04082322 -4.5625 7.0625 C-3.92441406 5.96035156 -3.28632813 4.85820312 -2.62890625 3.72265625 C-1 1 -1 1 0 0 Z " fill="#000000" transform="translate(276,14)"/>
<path d="M0 0 C0.99 0 1.98 0 3 0 C1.63855967 5.19822672 -0.46730171 8.09543873 -4 12 C-4.33 11.34 -4.66 10.68 -5 10 C-4.00390625 7.6171875 -4.00390625 7.6171875 -2.5625 4.875 C-1.85287109 3.50988281 -1.85287109 3.50988281 -1.12890625 2.1171875 C-0.75636719 1.41851563 -0.38382813 0.71984375 0 0 Z " fill="#000000" transform="translate(252,17)"/>
<path d="M0 0 C0.99 0 1.98 0 3 0 C1.63855967 5.19822672 -0.46730171 8.09543873 -4 12 C-4.33 11.34 -4.66 10.68 -5 10 C-4.00390625 7.6171875 -4.00390625 7.6171875 -2.5625 4.875 C-1.85287109 3.50988281 -1.85287109 3.50988281 -1.12890625 2.1171875 C-0.75636719 1.41851563 -0.38382813 0.71984375 0 0 Z " fill="#000000" transform="translate(180,17)"/>
<path d="M0 0 C0.33 0.66 0.66 1.32 1 2 C0.06553465 4.03144641 -0.93224776 6.03533587 -2 8 C-2.33 7.01 -2.66 6.02 -3 5 C-1.5625 2.3125 -1.5625 2.3125 0 0 Z " fill="#000000" transform="translate(216,34)"/>
<path d="M0 0 C0.66 0.66 1.32 1.32 2 2 C1.01 2.33 0.02 2.66 -1 3 C-0.67 2.01 -0.34 1.02 0 0 Z " fill="#000000" transform="translate(267,28)"/>
<path d="M0 0 C2 1 2 1 2 1 Z " fill="#000000" transform="translate(186,46)"/>
<path d="" fill="#000000" transform="translate(0,0)"/>
<path d="" fill="#000000" transform="translate(0,0)"/>
<path d="" fill="#000000" transform="translate(0,0)"/>
<path d="" fill="#000000" transform="translate(0,0)"/>
<path d="" fill="#000000" transform="translate(0,0)"/>
<path d="" fill="#000000" transform="translate(0,0)"/>
<path d="" fill="#000000" transform="translate(0,0)"/>
<path d="" fill="#000000" transform="translate(0,0)"/>
<path d="" fill="#000000" transform="translate(0,0)"/>
<path d="" fill="#000000" transform="translate(0,0)"/>
<path d="" fill="#000000" transform="translate(0,0)"/>
<path d="" fill="#000000" transform="translate(0,0)"/>
<path d="" fill="#000000" transform="translate(0,0)"/>
<path d="" fill="#000000" transform="translate(0,0)"/>
<path d="" fill="#000000" transform="translate(0,0)"/>
<path d="" fill="#000000" transform="translate(0,0)"/>
<path d="" fill="#000000" transform="translate(0,0)"/>
</svg>
